<?xml version="1.0" encoding="UTF-8" standalone="no"?>
<!DOCTYPE svg PUBLIC "-//W3C//DTD SVG 1.1//EN"
 "http://www.w3.org/Graphics/SVG/1.1/DTD/svg11.dtd">
<!-- Generated by graphviz version 2.44.0 (20200408.0750)
 -->
<!-- Title: dependencies Pages: 1 -->
<svg width="819pt" height="284pt"
 viewBox="0.00 0.00 819.00 284.00" xmlns="http://www.w3.org/2000/svg" xmlns:xlink="http://www.w3.org/1999/xlink">
<g id="graph0" class="graph" transform="scale(1 1) rotate(0) translate(4 280)">
<title>dependencies</title>
<polygon fill="white" stroke="transparent" points="-4,4 -4,-280 815,-280 815,4 -4,4"/>
<text text-anchor="start" x="384.51" y="-42.4" font-family="sans-serif" font-weight="bold" font-size="14.00">Legend</text>
<polygon fill="#ffffb3" stroke="transparent" points="171.5,-10 171.5,-30 191.5,-30 191.5,-10 171.5,-10"/>
<text text-anchor="start" x="195.13" y="-15.4" font-family="sans-serif" font-size="14.00"> &#160;Declarations</text>
<polygon fill="#8dd3c7" stroke="transparent" points="284.5,-10 284.5,-30 304.5,-30 304.5,-10 284.5,-10"/>
<text text-anchor="start" x="308.23" y="-15.4" font-family="sans-serif" font-size="14.00"> &#160;Module</text>
<polygon fill="#80b1d3" stroke="transparent" points="370.5,-10 370.5,-30 390.5,-30 390.5,-10 370.5,-10"/>
<text text-anchor="start" x="394.28" y="-15.4" font-family="sans-serif" font-size="14.00"> &#160;Bootstrap</text>
<polygon fill="#fdb462" stroke="transparent" points="467.5,-10 467.5,-30 487.5,-30 487.5,-10 467.5,-10"/>
<text text-anchor="start" x="491.17" y="-15.4" font-family="sans-serif" font-size="14.00"> &#160;Providers</text>
<polygon fill="#fb8072" stroke="transparent" points="563.5,-10 563.5,-30 583.5,-30 583.5,-10 563.5,-10"/>
<text text-anchor="start" x="587.23" y="-15.4" font-family="sans-serif" font-size="14.00"> &#160;Exports</text>
<g id="clust1" class="cluster">
<title>cluster_AppModule</title>
<polygon fill="none" stroke="black" stroke-dasharray="1,5" points="8,-70 8,-268 803,-268 803,-70 8,-70"/>
</g>
<g id="clust9" class="cluster">
<title>cluster_AppModule_providers</title>
<polygon fill="none" stroke="black" points="647,-78 647,-130 795,-130 795,-78 647,-78"/>
</g>
<g id="clust2" class="cluster">
<title>cluster_AppModule_declarations</title>
<polygon fill="none" stroke="black" points="168,-78 168,-130 639,-130 639,-78 168,-78"/>
</g>
<g id="clust8" class="cluster">
<title>cluster_AppModule_bootstrap</title>
<polygon fill="none" stroke="black" points="361,-208 361,-260 485,-260 485,-208 361,-208"/>
</g>
<g id="clust6" class="cluster">
<title>cluster_AppModule_imports</title>
<polygon fill="none" stroke="black" points="16,-78 16,-130 160,-130 160,-78 16,-78"/>
</g>
<!-- AppComponent -->
<g id="node1" class="node">
<title>AppComponent</title>
<polygon fill="#ffffb3" stroke="black" points="630.94,-122 525.06,-122 525.06,-86 630.94,-86 630.94,-122"/>
<text text-anchor="middle" x="578" y="-99.8" font-family="Times,serif" font-size="14.00">AppComponent</text>
</g>
<!-- AppModule -->
<g id="node4" class="node">
<title>AppModule</title>
<polygon fill="#8dd3c7" stroke="black" points="464.66,-187 461.66,-191 440.66,-191 437.66,-187 381.34,-187 381.34,-151 464.66,-151 464.66,-187"/>
<text text-anchor="middle" x="423" y="-164.8" font-family="Times,serif" font-size="14.00">AppModule</text>
</g>
<!-- AppComponent&#45;&gt;AppModule -->
<g id="edge1" class="edge">
<title>AppComponent&#45;&gt;AppModule</title>
<path fill="none" stroke="black" d="M578,-122.02C578,-139.37 578,-163 578,-163 578,-163 474.95,-163 474.95,-163"/>
<polygon fill="black" stroke="black" points="474.95,-159.5 464.95,-163 474.95,-166.5 474.95,-159.5"/>
</g>
<!-- CGOLControlsComponent -->
<g id="node2" class="node">
<title>CGOLControlsComponent</title>
<polygon fill="#ffffb3" stroke="black" points="506.66,-122 339.34,-122 339.34,-86 506.66,-86 506.66,-122"/>
<text text-anchor="middle" x="423" y="-99.8" font-family="Times,serif" font-size="14.00">CGOLControlsComponent</text>
</g>
<!-- CGOLControlsComponent&#45;&gt;AppModule -->
<g id="edge2" class="edge">
<title>CGOLControlsComponent&#45;&gt;AppModule</title>
<path fill="none" stroke="black" d="M423,-122.11C423,-122.11 423,-140.99 423,-140.99"/>
<polygon fill="black" stroke="black" points="419.5,-140.99 423,-150.99 426.5,-140.99 419.5,-140.99"/>
</g>
<!-- CGOLGridComponent -->
<g id="node3" class="node">
<title>CGOLGridComponent</title>
<polygon fill="#ffffb3" stroke="black" points="321.59,-122 176.41,-122 176.41,-86 321.59,-86 321.59,-122"/>
<text text-anchor="middle" x="249" y="-99.8" font-family="Times,serif" font-size="14.00">CGOLGridComponent</text>
</g>
<!-- CGOLGridComponent&#45;&gt;AppModule -->
<g id="edge3" class="edge">
<title>CGOLGridComponent&#45;&gt;AppModule</title>
<path fill="none" stroke="black" d="M249,-122.02C249,-139.37 249,-163 249,-163 249,-163 371.32,-163 371.32,-163"/>
<polygon fill="black" stroke="black" points="371.32,-166.5 381.32,-163 371.32,-159.5 371.32,-166.5"/>
</g>
<!-- AppComponent  -->
<g id="node6" class="node">
<title>AppComponent </title>
<polygon fill="#80b1d3" stroke="black" points="477.44,-252 368.56,-252 368.56,-216 477.44,-216 477.44,-252"/>
<text text-anchor="middle" x="423" y="-229.8" font-family="Times,serif" font-size="14.00">AppComponent </text>
</g>
<!-- AppModule&#45;&gt;AppComponent  -->
<g id="edge5" class="edge">
<title>AppModule&#45;&gt;AppComponent </title>
<path fill="none" stroke="black" stroke-dasharray="1,5" d="M423,-187.11C423,-187.11 423,-205.99 423,-205.99"/>
<polygon fill="black" stroke="black" points="419.5,-205.99 423,-215.99 426.5,-205.99 419.5,-205.99"/>
</g>
<!-- AppRoutingModule -->
<g id="node5" class="node">
<title>AppRoutingModule</title>
<polygon fill="#8dd3c7" stroke="black" points="152.27,-122 149.27,-126 128.27,-126 125.27,-122 23.73,-122 23.73,-86 152.27,-86 152.27,-122"/>
<text text-anchor="middle" x="88" y="-99.8" font-family="Times,serif" font-size="14.00">AppRoutingModule</text>
</g>
<!-- AppRoutingModule&#45;&gt;AppModule -->
<g id="edge4" class="edge">
<title>AppRoutingModule&#45;&gt;AppModule</title>
<path fill="none" stroke="black" d="M88,-122.28C88,-143.32 88,-175 88,-175 88,-175 371.25,-175 371.25,-175"/>
<polygon fill="black" stroke="black" points="371.25,-178.5 381.25,-175 371.25,-171.5 371.25,-178.5"/>
</g>
<!-- CGOLService -->
<g id="node7" class="node">
<title>CGOLService</title>
<ellipse fill="#fdb462" stroke="black" cx="721" cy="-104" rx="66.05" ry="18"/>
<text text-anchor="middle" x="721" y="-99.8" font-family="Times,serif" font-size="14.00">CGOLService</text>
</g>
<!-- CGOLService&#45;&gt;AppModule -->
<g id="edge6" class="edge">
<title>CGOLService&#45;&gt;AppModule</title>
<path fill="none" stroke="black" d="M721,-122.28C721,-143.32 721,-175 721,-175 721,-175 474.75,-175 474.75,-175"/>
<polygon fill="black" stroke="black" points="474.75,-171.5 464.75,-175 474.75,-178.5 474.75,-171.5"/>
</g>
</g>
</svg>
